{
  "accessors": [
    {
      "bufferView": 0,
      "componentType": 5125,
      "count": 6936,
      "type": "SCALAR"
    },
    {
      "bufferView": 1,
      "componentType": 5126,
      "count": 1942,
      "max": [
        0.08285790805316706,
        0.05543652207773331,
        0.01999999949475749
      ],
      "min": [
        -0.013065527003771837,
        -0.11927421577755815,
        -0.019999999494757503
      ],
      "type": "VEC3"
    },
    {
      "bufferView": 2,
      "componentType": 5126,
      "count": 1942,
      "max": [
        0.9999999755489707,
        1.0,
        1.0
      ],
      "min": [
        -0.9999999999571885,
        -1.0,
        -1.0
      ],
      "type": "VEC3"
    },
    {
      "bufferView": 3,
      "componentType": 5126,
      "count": 1942,
      "max": [
        1.0,
        0.6572891376745916
      ],
      "min": [
        0.0,
        0.0
      ],
      "type": "VEC2"
    },
    {
      "bufferView": 4,
      "componentType": 5125,
      "count": 6936,
      "type": "SCALAR"
    },
    {
      "bufferView": 5,
      "componentType": 5126,
      "count": 1942,
      "max": [
        0.013065527003771393,
        0.11927421577755792,
        0.019999999494757503
      ],
      "min": [
        -0.0828579080531675,
        -0.05543652207773375,
        -0.019999999494757503
      ],
      "type": "VEC3"
    },
    {
      "bufferView": 6,
      "componentType": 5126,
      "count": 1942,
      "max": [
        0.9999999999572118,
        1.0,
        1.0
      ],
      "min": [
        -0.9999999755493681,
        -1.0,
        -1.0
      ],
      "type": "VEC3"
    },
    {
      "bufferView": 7,
      "componentType": 5126,
      "count": 1942,
      "max": [
        1.0,
        0.6572888562616634
      ],
      "min": [
        0.0,
        0.0
      ],
      "type": "VEC2"
    }
  ],
  "asset": {
    "generator": "Adobe Illustrator",
    "version": "2.0"
  },
  "bufferViews": [
    {
      "buffer": 0,
      "byteLength": 27744,
      "target": 34963
    },
    {
      "buffer": 0,
      "byteLength": 23304,
      "byteOffset": 27744,
      "target": 34962
    },
    {
      "buffer": 0,
      "byteLength": 23304,
      "byteOffset": 51048,
      "target": 34962
    },
    {
      "buffer": 0,
      "byteLength": 15536,
      "byteOffset": 74352,
      "target": 34962
    },
    {
      "buffer": 0,
      "byteLength": 27744,
      "byteOffset": 89888,
      "target": 34963
    },
    {
      "buffer": 0,
      "byteLength": 23304,
      "byteOffset": 117632,
      "target": 34962
    },
    {
      "buffer": 0,
      "byteLength": 23304,
      "byteOffset": 140936,
      "target": 34962
    },
    {
      "buffer": 0,
      "byteLength": 15536,
      "byteOffset": 164240,
      "target": 34962
    }
  ],
  "buffers": [
    {
      "byteLength": 179776,
      "uri": "data:application/octet-stream;base64,"
    }
  ],
  "materials": [
    {
      "doubleSided": true,
      "pbrMetallicRoughness": {
        "baseColorFactor": [
          0.9062500596046448,
          0.875,
          0.80078125,
          1.0
        ],
        "metallicFactor": 0.0
      }
    },
    {
      "doubleSided": true,
      "pbrMetallicRoughness": {
        "baseColorFactor": [
          0.9062500596046448,
          0.875,
          0.80078125,
          1.0
        ],
        "metallicFactor": 0.0
      }
    }
  ],
  "meshes": [
    {
      "primitives": [
        {
          "attributes": {
            "NORMAL": 2,
            "POSITION": 1,
            "TEXCOORD_0": 3
          },
          "indices": 0,
          "material": 0,
          "mode": 4
        }
      ]
    },
    {
      "primitives": [
        {
          "attributes": {
            "NORMAL": 6,
            "POSITION": 5,
            "TEXCOORD_0": 7
          },
          "indices": 4,
          "material": 1,
          "mode": 4
        }
      ]
    }
  ],
  "nodes": [
    {
      "mesh": 0
    },
    {
      "mesh": 1
    }
  ],
  "scenes": [
    {
      "nodes": [
        0,
        1
      ]
    }
  ]
}
